<?xml version="1.0" standalone="no"?>
<!DOCTYPE svg PUBLIC "-//W3C//DTD SVG 20010904//EN"
 "http://www.w3.org/TR/2001/REC-SVG-20010904/DTD/svg10.dtd">
<svg version="1.0" xmlns="http://www.w3.org/2000/svg"
 width="2000.000000pt" height="2250.000000pt" viewBox="0 0 2000.000000 2250.000000"
 preserveAspectRatio="xMidYMid meet">

<g transform="translate(0.000000,2250.000000) scale(0.100000,-0.100000)"
fill="#000000" stroke="none">
<path d="M9705 21427 c-800 -295 -960 -360 -1260 -511 -206 -104 -338 -183
-491 -292 -49 -35 -90 -61 -92 -59 -3 2 4 76 13 163 21 182 16 233 -26 264
-33 25 -82 17 -142 -23 -23 -15 -127 -109 -230 -208 -225 -216 -327 -300 -424
-348 -79 -39 -89 -40 -272 -13 -161 24 -356 -16 -535 -108 -268 -138 -485
-382 -601 -677 -31 -78 -32 -80 -71 -87 -70 -12 -306 -8 -444 8 -196 23 -349
21 -430 -5 -87 -27 -132 -57 -301 -202 -358 -305 -676 -607 -1285 -1220 -482
-486 -447 -438 -554 -754 -66 -192 -120 -311 -172 -378 -134 -173 -397 -442
-743 -758 -564 -515 -773 -765 -975 -1167 -237 -473 -354 -937 -520 -2062 -57
-385 -101 -655 -130 -805 l-20 -100 61 -115 c442 -831 679 -1477 795 -2171 24
-142 25 -160 12 -205 -20 -73 -61 -97 -153 -91 -38 2 -78 7 -89 12 -18 8 -18
-2 -13 -291 5 -312 14 -391 58 -524 35 -109 186 -460 525 -1222 509 -1144 686
-1580 875 -2154 l53 -162 42 -5 c154 -17 299 -187 339 -397 57 -306 120 -521
212 -726 162 -363 410 -638 711 -788 108 -54 264 -103 368 -115 50 -6 205 -11
345 -10 441 2 585 -42 823 -249 176 -153 484 -284 768 -326 58 -9 170 -16 248
-16 l142 0 197 -104 c108 -57 309 -161 446 -231 448 -229 712 -377 949 -534
77 -51 117 -71 139 -71 48 1 114 35 136 70 l19 32 16 -23 c13 -19 16 -51 16
-162 l0 -138 33 6 c46 8 415 51 587 70 1007 106 1798 71 2394 -104 93 -28 100
-29 140 -15 90 32 183 47 306 47 234 1 436 -69 805 -278 103 -58 116 -63 205
-74 106 -13 163 -4 180 29 15 27 12 85 -5 127 -8 19 -15 39 -15 44 0 17 160
89 272 122 62 19 218 56 346 82 309 63 302 65 467 -145 103 -131 159 -177 242
-194 l31 -7 4 178 c3 175 4 179 33 238 22 45 40 66 70 82 77 43 207 50 448 27
l58 -6 -3 163 c-4 237 -6 231 167 409 78 80 209 219 292 310 226 248 371 378
518 464 l49 29 30 -36 c105 -122 281 -305 288 -301 13 8 9 105 -7 169 -32 119
-87 217 -177 312 -46 48 -94 101 -106 117 -25 32 -29 78 -9 95 8 6 96 38 197
72 278 92 358 91 498 -7 35 -24 65 -44 67 -44 3 0 -11 28 -29 63 -61 112 -57
151 20 207 83 59 139 72 329 74 152 2 175 5 220 25 126 56 196 183 214 387 l8
90 233 280 c128 153 300 368 381 477 436 582 813 1249 1148 2034 100 234 241
596 236 602 -10 10 -210 -154 -333 -273 -161 -156 -254 -270 -387 -470 -80
-121 -110 -158 -150 -184 -43 -30 -56 -33 -97 -29 -29 2 -64 15 -89 31 -22 15
-42 26 -44 24 -1 -2 -32 -99 -69 -217 -37 -118 -68 -217 -70 -219 -3 -2 -2 14
0 35 5 48 24 289 24 308 0 8 -102 -66 -227 -163 -1321 -1032 -2450 -1846
-3441 -2485 -239 -153 -342 -182 -453 -126 -45 22 -103 86 -131 144 -12 25
-25 45 -29 45 -4 0 -52 -39 -106 -86 -130 -114 -168 -142 -210 -150 -77 -15
-119 40 -110 145 2 36 8 74 12 85 7 17 6 17 -15 6 -17 -9 -59 -11 -160 -5
-186 9 -201 1 -259 -147 -40 -100 -58 -99 -113 4 -31 59 -63 88 -78 71 -4 -4
-15 -57 -25 -118 -9 -60 -21 -139 -28 -175 l-11 -65 -7 58 c-7 65 -30 97 -67
97 -34 0 -112 -82 -138 -143 -10 -26 -22 -47 -26 -47 -4 0 -41 51 -82 113 -71
108 -167 224 -228 275 l-28 24 30 -63 c37 -79 64 -198 56 -244 -9 -48 -37 -46
-85 6 l-38 41 -11 -114 c-7 -63 -12 -126 -12 -140 0 -21 -9 -30 -47 -49 -29
-14 -90 -65 -155 -130 -58 -58 -122 -113 -140 -122 -20 -9 -87 -20 -163 -27
-400 -33 -749 -89 -1050 -168 -102 -26 -114 -27 -160 -15 -712 184 -1528 319
-2333 383 -140 11 -299 27 -355 35 -358 54 -659 151 -1012 325 -197 98 -455
244 -455 258 0 4 20 15 45 25 57 24 128 87 161 143 29 50 41 135 25 178 l-12
29 -25 -39 c-50 -77 -125 -111 -347 -156 l-149 -30 -41 39 c-23 21 -134 128
-247 238 -113 110 -397 378 -630 595 -234 217 -530 494 -660 614 -735 685
-1313 1270 -1695 1716 -198 230 -290 407 -555 1065 -152 376 -237 575 -268
622 l-14 23 -43 -45 c-67 -68 -117 -72 -177 -12 -62 62 -123 216 -112 281 22
136 135 187 235 106 21 -17 39 -29 39 -27 0 2 -48 334 -106 738 -115 799 -117
822 -75 949 12 36 65 153 116 260 53 109 102 224 110 260 8 36 74 603 146
1260 71 657 141 1260 155 1338 173 989 585 1833 1302 2667 306 356 598 644
1427 1407 381 351 413 374 807 599 117 67 240 139 273 159 97 60 686 409 857
508 857 495 1552 758 2293 867 298 44 387 49 890 50 362 1 506 5 550 14 174
38 266 127 301 290 14 68 19 362 7 434 -5 34 -9 38 -27 32 -12 -4 -54 -9 -94
-12 -69 -5 -78 -3 -145 31 -41 20 -123 78 -192 136 -119 99 -183 138 -300 183
l-60 22 -160 -58z m-8046 -12973 c46 -38 100 -137 182 -329 81 -193 148 -331
191 -393 l29 -42 -53 23 c-162 72 -257 182 -258 297 -1 107 -50 250 -135 389
-19 32 -35 64 -35 70 0 20 48 11 79 -15z m-250 -21 c5 -10 34 -101 65 -203 31
-102 59 -192 62 -200 7 -21 -6 -6 -106 120 -46 58 -98 121 -116 140 -48 51
-49 87 -5 131 34 34 85 40 100 12z"/>
<path d="M12920 20821 c-208 -6 -229 -8 -272 -29 -60 -30 -133 -108 -164 -177
-14 -30 -27 -55 -28 -55 -1 0 -20 9 -42 19 -81 39 -124 46 -289 44 -243 -2
-353 -16 -430 -52 -171 -80 -269 -261 -236 -438 21 -114 63 -185 176 -298 197
-198 466 -342 791 -424 164 -42 280 -59 483 -73 l174 -12 186 -106 c701 -401
1238 -758 2500 -1664 716 -514 972 -693 1007 -707 16 -6 61 -11 99 -11 92 0
190 33 364 123 74 38 142 69 150 69 14 0 16 -25 17 -197 0 -175 3 -213 27
-323 30 -145 84 -305 196 -591 120 -305 198 -406 429 -561 171 -113 277 -235
338 -386 51 -127 59 -176 59 -362 0 -187 -11 -265 -60 -414 l-25 -76 81 -163
c138 -274 269 -487 406 -657 100 -125 269 -291 343 -338 90 -56 101 -78 104
-210 3 -117 18 -167 63 -214 21 -22 36 -28 70 -28 36 0 50 6 85 38 23 20 54
55 70 76 18 26 28 33 28 22 0 -10 -16 -149 -35 -309 -56 -476 -68 -716 -45
-937 12 -114 40 -254 50 -243 3 4 14 105 24 223 40 504 116 983 216 1367 42
160 118 404 151 480 18 42 18 43 0 43 -44 0 -113 -65 -189 -179 -84 -126 -108
-148 -166 -158 l-39 -6 5 94 c6 116 -7 605 -22 794 -20 255 -50 535 -106 975
-31 239 -67 527 -80 640 l-25 205 -1021 1634 c-1133 1813 -1060 1705 -1367
2011 -652 650 -1487 1121 -2502 1415 -370 107 -516 127 -979 130 -190 1 -446
-1 -570 -4z"/>
<path d="M9265 13506 l-99 -93 -42 18 c-64 29 -141 34 -210 14 -48 -13 -69
-27 -114 -73 -152 -156 -109 -357 104 -485 79 -48 109 -83 109 -127 0 -43 -49
-91 -137 -134 -178 -86 -258 -51 -417 186 -81 122 -148 250 -170 328 -7 25
-15 88 -18 140 l-6 95 -47 -75 c-167 -267 -200 -499 -98 -699 141 -280 538
-472 1150 -557 182 -25 654 -30 870 -10 437 42 797 132 1085 270 212 102 355
206 450 328 172 219 190 458 56 733 -60 122 -80 145 -126 145 -48 0 -60 -25
-75 -154 -31 -270 -132 -488 -281 -606 -60 -47 -103 -57 -178 -40 -44 10 -65
22 -98 55 -59 58 -59 94 -2 144 148 128 175 179 167 300 -15 211 -210 348
-377 265 l-53 -27 -132 62 c-72 35 -137 65 -145 69 -8 3 22 -65 67 -150 l82
-156 -75 -126 c-41 -69 -75 -128 -75 -130 0 -2 52 10 115 26 109 29 115 30
140 14 19 -12 25 -25 25 -52 0 -47 -12 -67 -81 -142 -131 -140 -138 -227 -30
-357 44 -53 52 -89 24 -103 -30 -16 -256 -25 -285 -11 -31 13 -128 129 -158
187 -45 86 -37 149 31 255 80 124 108 256 71 339 -25 57 -50 74 -129 87 -94
15 -119 38 -139 126 -16 72 -55 112 -94 100 -28 -9 -43 -41 -51 -108 -9 -72
-30 -97 -103 -120 -75 -24 -118 -55 -143 -107 -49 -96 -18 -185 108 -316 90
-93 109 -123 109 -173 0 -15 -27 -93 -59 -172 l-60 -144 -81 -3 c-86 -3 -246
20 -263 37 -7 7 -6 16 5 28 66 75 82 198 39 287 -13 27 -59 86 -102 131 -84
90 -122 152 -117 193 3 24 7 27 39 26 19 -1 62 -13 94 -27 64 -30 142 -36 151
-13 9 23 -35 98 -93 157 l-54 56 15 189 c8 104 13 190 12 191 0 1 -46 -40
-101 -91z"/>
<path d="M11964 12893 c-71 -325 -311 -611 -674 -806 -740 -397 -2044 -419
-2828 -47 -326 155 -515 358 -555 595 l-14 80 -27 -60 c-231 -505 158 -896
1054 -1059 287 -52 406 -61 830 -61 403 0 503 6 780 46 837 120 1412 412 1540
782 29 85 36 203 16 295 -13 65 -97 262 -110 262 -3 0 -8 -12 -12 -27z"/>
<path d="M12243 12447 c-89 -362 -404 -654 -923 -854 -1104 -427 -2903 -312
-3457 220 -113 108 -172 226 -174 344 l-1 58 -14 -33 c-92 -211 -58 -447 89
-621 294 -348 1074 -551 2027 -528 465 12 861 61 1256 157 914 221 1413 631
1320 1086 -16 82 -52 180 -83 232 l-18 29 -22 -90z"/>
<path d="M4032 10739 c2 -19 16 -26 91 -47 l87 -25 0 -807 0 -808 -72 -28
c-134 -50 -138 -52 -138 -74 0 -20 3 -20 248 -18 235 3 247 4 247 22 0 15 -21
27 -100 56 l-100 38 -3 632 -2 632 212 -249 c117 -137 391 -457 607 -712 394
-460 395 -462 430 -459 l36 3 5 875 5 874 99 37 c54 21 100 40 103 43 3 3 3
12 0 21 -6 13 -40 15 -252 15 -245 0 -246 0 -243 -21 2 -17 24 -29 103 -59
l100 -38 3 -523 c1 -288 -2 -519 -6 -514 -5 6 -204 239 -442 519 -257 302
-456 526 -489 552 -88 69 -118 76 -339 82 l-194 4 4 -23z"/>
<path d="M10182 10739 c2 -19 16 -26 91 -47 l87 -25 0 -807 0 -808 -105 -38
c-91 -34 -105 -42 -105 -61 l0 -23 245 0 245 0 0 23 c0 20 -13 28 -97 59 l-98
36 -3 631 -2 632 607 -711 606 -711 36 3 36 3 5 875 5 874 95 36 c77 29 96 40
98 58 l3 22 -246 0 -246 0 3 -22 c2 -17 23 -29 103 -59 l100 -37 3 -523 c1
-293 -2 -519 -6 -514 -5 6 -205 240 -444 520 -239 281 -454 525 -477 543 -23
18 -67 45 -99 60 -54 25 -66 27 -250 30 l-194 4 4 -23z"/>
<path d="M7795 10588 c-95 -34 -127 -91 -133 -240 l-5 -108 -88 0 -89 0 0 -35
0 -35 89 0 90 0 3 -447 c3 -445 3 -448 27 -508 62 -156 180 -255 360 -301 47
-12 94 -15 175 -12 96 3 118 8 162 30 104 54 171 166 182 301 l5 67 -29 0
c-29 0 -30 -1 -42 -77 -15 -93 -40 -149 -94 -202 -95 -96 -230 -75 -284 43
-38 83 -44 166 -44 649 l0 457 180 0 180 0 0 35 0 35 -180 0 -180 0 0 180 0
180 -127 -1 c-71 0 -141 -5 -158 -11z"/>
<path d="M15215 10585 c-50 -18 -100 -71 -114 -122 -6 -21 -11 -79 -11 -130
l0 -92 -92 -3 -93 -3 0 -30 0 -30 92 -3 92 -3 3 -457 3 -457 36 -76 c63 -130
188 -228 340 -264 96 -22 245 -20 313 6 124 46 216 196 216 350 0 26 -3 29
-34 29 l-33 0 -5 -68 c-17 -239 -250 -362 -366 -192 -51 75 -62 203 -62 733
l0 397 185 0 185 0 0 35 0 35 -185 0 -185 0 0 180 0 180 -122 0 c-80 -1 -137
-6 -163 -15z"/>
<path d="M6536 10269 c-234 -25 -415 -143 -504 -330 -54 -114 -72 -200 -72
-354 0 -225 55 -379 178 -502 127 -127 281 -183 504 -183 230 0 381 54 507
180 128 127 183 281 183 505 0 151 -19 245 -73 354 -120 243 -388 366 -723
330z m215 -95 c52 -51 94 -138 116 -244 26 -124 26 -568 0 -688 -40 -185 -121
-292 -222 -292 -103 0 -181 105 -223 300 -23 108 -23 574 0 675 25 110 55 179
100 230 51 58 69 66 136 62 46 -3 58 -9 93 -43z"/>
<path d="M9265 10270 c-259 -32 -451 -202 -522 -460 -25 -92 -25 -358 0 -449
62 -226 228 -386 458 -441 128 -30 306 -28 406 5 170 58 286 181 300 321 l6
54 -30 0 c-27 0 -30 -3 -41 -57 -13 -64 -61 -144 -114 -188 -18 -16 -62 -42
-98 -59 -57 -27 -76 -31 -150 -31 -69 0 -93 4 -126 22 -57 30 -119 104 -144
171 -24 63 -50 221 -50 302 l0 56 208 12 c191 11 414 37 539 62 l52 11 10 50
c36 166 -14 327 -138 449 -133 131 -354 197 -566 170z m161 -71 c40 -24 76
-82 99 -159 23 -76 31 -257 15 -348 -11 -65 -15 -74 -39 -84 -14 -5 -98 -12
-185 -15 l-159 -6 6 139 c15 328 78 494 187 494 26 0 56 -8 76 -21z"/>
<path d="M12638 10269 c-80 -11 -185 -48 -250 -90 -121 -78 -232 -245 -264
-399 -22 -102 -21 -293 1 -390 59 -256 228 -421 487 -475 92 -20 277 -19 353
0 176 46 314 186 332 336 l6 49 -30 0 c-28 0 -31 -4 -38 -37 -20 -112 -97
-208 -211 -264 -62 -31 -77 -34 -154 -34 -68 0 -93 4 -126 22 -121 64 -177
189 -191 419 l-6 111 159 7 c235 10 612 60 635 83 17 17 31 128 25 189 -28
272 -252 457 -576 477 -47 3 -115 1 -152 -4z m202 -97 c55 -57 77 -118 93
-256 11 -99 -2 -279 -21 -298 -13 -13 -150 -27 -261 -28 l-104 0 6 148 c10
244 41 374 106 442 34 36 43 40 86 40 45 0 52 -4 95 -48z"/>
<path d="M14012 10269 c-200 -19 -339 -96 -395 -218 -31 -67 -31 -197 1 -265
53 -117 123 -175 377 -312 197 -106 287 -164 318 -206 41 -56 38 -174 -7 -233
-74 -97 -277 -97 -408 0 -78 57 -162 178 -207 298 -9 24 -16 27 -61 27 l-50 0
0 -220 0 -220 33 0 c40 0 116 46 148 89 l22 30 31 -26 c44 -37 159 -90 225
-104 36 -7 111 -10 211 -6 231 8 355 49 445 149 52 58 76 123 76 209 1 110
-17 154 -95 237 -66 71 -103 95 -302 203 -175 94 -265 151 -301 191 -50 53
-67 145 -39 211 16 39 76 94 112 103 41 11 128 -3 174 -26 94 -48 200 -180
251 -312 l22 -58 53 0 54 0 0 220 0 220 -30 0 c-42 0 -86 -24 -137 -73 l-42
-40 -55 37 c-81 53 -152 83 -226 95 -71 12 -78 12 -198 0z"/>
</g>
</svg>
